<?xml version="1.0" standalone="no"?>
<!DOCTYPE svg PUBLIC "-//W3C//DTD SVG 20010904//EN"
 "http://www.w3.org/TR/2001/REC-SVG-20010904/DTD/svg10.dtd">
<svg version="1.0" xmlns="http://www.w3.org/2000/svg"
 width="512.000000pt" height="512.000000pt" viewBox="0 0 512.000000 512.000000"
 preserveAspectRatio="xMidYMid meet">
<metadata>
Created by potrace 1.11, written by Peter Selinger 2001-2013
</metadata>
<g transform="translate(0.000000,512.000000) scale(0.100000,-0.100000)"
fill="#000000" stroke="none">
<path d="M4616 4888 c-21 -4 -51 -17 -66 -28 -16 -11 -324 -316 -685 -677
l-656 -656 -108 56 c-107 55 -220 94 -334 117 l-59 12 20 21 c76 84 73 220 -8
304 -60 65 -178 85 -256 45 -52 -26 -756 -729 -829 -827 -87 -115 -130 -198
-175 -336 -16 -48 -31 -104 -35 -125 -3 -22 -9 -63 -14 -92 -14 -87 -5 -304
14 -372 2 -8 7 -30 10 -48 9 -56 63 -191 110 -278 25 -46 45 -87 45 -90 0 -3
-297 -303 -661 -666 -421 -421 -668 -676 -681 -702 -54 -106 0 -254 110 -302
52 -23 139 -21 188 4 25 13 285 266 697 677 l657 657 262 -261 c154 -155 277
-271 302 -283 49 -25 134 -27 186 -5 41 18 91 68 115 116 35 69 15 190 -40
245 -9 9 -12 17 -6 17 6 1 14 2 19 3 4 1 27 6 52 10 140 26 339 114 462 207
65 49 769 745 813 804 44 59 52 152 19 221 -8 18 -135 152 -281 298 l-265 266
660 660 c415 414 666 673 677 697 11 22 18 60 18 94 0 147 -131 250 -277 217z
m-1851 -1652 c44 -14 86 -30 94 -35 11 -7 -97 -121 -458 -482 -365 -365 -475
-470 -482 -458 -5 8 -21 50 -35 94 -40 123 -39 292 3 420 79 246 286 430 542
480 99 19 240 11 336 -19z m628 -506 l169 -171 -274 -272 c-150 -150 -295
-288 -321 -306 -64 -43 -178 -95 -247 -112 -61 -14 -210 -18 -280 -6 -48 8
-156 42 -179 56 -11 7 100 124 470 495 266 267 486 485 488 485 2 1 81 -76
174 -169z"/>
</g>
</svg>
